<?xml version="1.0" standalone="no"?>
<!DOCTYPE svg PUBLIC "-//W3C//DTD SVG 20010904//EN"
 "http://www.w3.org/TR/2001/REC-SVG-20010904/DTD/svg10.dtd">
<svg version="1.0" xmlns="http://www.w3.org/2000/svg"
 width="966.000000pt" height="966.000000pt" viewBox="0 0 966.000000 966.000000"
 preserveAspectRatio="xMidYMid meet">
<metadata>
Created by potrace 1.15, written by Peter Selinger 2001-2017
</metadata>
<g transform="translate(0.000000,966.000000) scale(0.100000,-0.100000)"
fill="#000000" stroke="none">
<path d="M4771 9638 c-84 -44 -81 -20 -81 -620 l0 -528 -47 0 c-70 0 -301 -27
-433 -50 -1430 -253 -2586 -1337 -2934 -2751 -39 -157 -80 -403 -90 -539 -4
-47 -9 -106 -12 -132 l-6 -48 -517 0 c-516 0 -517 0 -561 -23 -96 -49 -108
-169 -25 -247 l27 -25 538 -3 538 -3 7 -97 c65 -927 436 -1746 1084 -2392 275
-274 586 -500 920 -669 456 -231 897 -353 1429 -396 l82 -7 0 -505 c0 -548 -1
-537 56 -582 21 -17 41 -21 97 -21 66 0 71 2 102 34 18 19 35 49 39 66 3 18 6
252 6 520 l0 487 103 7 c852 55 1647 397 2274 978 533 494 910 1138 1078 1841
53 225 95 510 95 652 0 94 -53 85 522 85 432 0 513 2 538 15 48 25 60 51 60
135 0 71 -2 78 -28 103 -16 15 -44 32 -63 37 -20 6 -236 10 -531 10 l-498 0 0
58 c0 80 -27 303 -55 457 -242 1310 -1191 2400 -2460 2823 -289 97 -629 163
-917 179 l-117 6 -3 533 c-3 520 -3 533 -24 560 -52 70 -122 89 -193 52z m523
-1464 c937 -119 1788 -634 2341 -1415 336 -474 545 -1041 605 -1638 5 -57 10
-116 10 -132 l0 -29 -514 0 -515 0 -5 48 c-43 358 -112 595 -252 873 -184 363
-457 669 -804 901 -281 187 -668 330 -1000 368 -52 6 -114 13 -137 16 l-43 5
0 516 0 516 98 -7 c53 -4 151 -14 216 -22z m-604 -494 c0 -479 -1 -510 -17
-510 -42 -1 -236 -30 -328 -50 -149 -32 -353 -103 -500 -174 -255 -123 -450
-261 -651 -461 -306 -305 -516 -672 -620 -1081 -32 -129 -64 -312 -64 -372 0
-67 40 -62 -526 -62 l-514 0 5 53 c35 373 80 594 181 888 119 347 297 674 540
989 108 140 402 438 541 548 457 361 946 585 1508 692 127 24 317 47 393 49
l52 1 0 -510z m580 -836 c590 -118 1106 -493 1404 -1022 130 -230 228 -538
252 -789 l7 -73 -977 0 -976 0 0 961 0 962 83 -7 c45 -4 138 -18 207 -32z
m-580 -929 l0 -955 -945 0 -945 0 0 21 c0 51 33 243 60 345 175 677 673 1215
1336 1444 137 47 359 96 452 99 l42 1 0 -955z m8 -2202 l2 -963 -37 0 c-61 0
-219 28 -342 61 -816 216 -1431 938 -1519 1782 -5 42 -6 80 -3 82 2 3 430 4
950 3 l946 -3 3 -962z m-2184 880 c27 -334 144 -690 323 -991 129 -216 343
-464 536 -621 340 -276 784 -464 1210 -512 l107 -13 0 -524 0 -525 -97 6
c-130 9 -331 39 -478 72 -1306 292 -2322 1334 -2584 2650 -33 162 -61 386 -61
478 l0 57 519 0 518 0 7 -77z m4416 60 c0 -10 -7 -64 -15 -121 -85 -596 -409
-1111 -912 -1448 -201 -135 -480 -251 -718 -299 -121 -24 -292 -45 -300 -36
-3 2 -5 436 -5 963 l0 958 975 0 c922 0 975 -1 975 -17z m1308 -97 c-15 -237
-66 -510 -140 -751 -377 -1229 -1431 -2149 -2698 -2354 -118 -19 -321 -41
-382 -41 l-28 0 0 519 0 519 78 7 c472 42 920 224 1297 528 111 89 295 282
387 405 263 349 433 788 465 1199 l6 83 511 0 511 0 -7 -114z"/>
</g>
</svg>
